<svg version="1.1" id="Layer_1" xmlns="http://www.w3.org/2000/svg" xmlns:xlink="http://www.w3.org/1999/xlink" x="0px" y="0px"
	 width="100%" viewBox="0 0 496 496" enable-background="new 0 0 496 496" xml:space="preserve">
<path fill="#000000" opacity="1.000000" stroke="none" 
	d="
M117.043198,346.063232 
	C122.623985,339.628876 128.104996,333.569977 133.274155,327.255798 
	C137.707169,321.840820 141.536118,316.063538 143.693634,309.215851 
	C149.380814,291.165619 160.102448,275.811157 170.455231,260.282898 
	C173.908325,255.103592 173.482224,252.499573 167.947739,249.554047 
	C161.921753,246.346954 155.685486,243.535660 149.548401,240.536469 
	C120.114136,226.151901 102.662979,202.507111 95.793243,170.761993 
	C92.940796,157.580780 90.726364,144.299896 90.689552,130.751053 
	C90.682724,128.236710 90.475983,125.543663 93.202278,124.184364 
	C96.216469,122.681534 98.244888,124.796753 100.233139,126.556778 
	C103.351837,129.317490 106.598412,131.973328 109.435493,135.006012 
	C125.183418,151.839645 144.494247,164.101013 163.097778,177.303711 
	C171.104645,182.986069 178.635284,189.337753 186.419998,195.336411 
	C187.800613,196.400269 188.942169,197.978867 191.654449,198.026550 
	C187.623291,190.047333 185.427063,181.916397 187.030640,173.316299 
	C188.766693,164.005859 190.785660,154.743362 192.900482,145.510193 
	C194.123825,140.169174 195.375641,134.777176 198.276993,130.006683 
	C199.275452,128.365005 199.899628,125.918671 202.343399,126.138725 
	C204.419525,126.325668 204.870956,128.560410 205.687378,130.160202 
	C216.234863,150.828094 223.339264,172.933716 232.437500,194.206696 
	C233.589539,196.900345 234.973404,199.494873 236.460419,202.570847 
	C239.454453,199.934418 241.935638,197.783875 244.376968,195.589005 
	C246.332001,193.831299 245.098602,192.310043 243.917969,190.839645 
	C241.103790,187.334747 238.074341,183.983704 235.488174,180.319061 
	C231.384521,174.504105 229.174438,168.280869 232.259872,161.115234 
	C233.616669,157.964203 232.370941,154.990524 230.928040,152.043076 
	C226.939957,143.896561 223.961502,135.477493 224.653183,126.161942 
	C224.820602,123.906982 224.955002,121.695641 227.448151,120.837296 
	C229.927170,119.983810 231.570999,121.600525 233.024719,123.252800 
	C236.692200,127.421188 238.961182,132.489502 241.798203,137.187302 
	C253.706818,156.906601 266.163300,176.189713 282.867554,192.360382 
	C285.846680,195.244339 288.508514,195.683411 292.621063,195.022781 
	C303.400818,193.291199 308.721069,188.390259 312.783569,177.260086 
	C317.289795,164.914291 322.872131,153.398956 324.317780,139.901932 
	C325.529358,128.590927 333.539795,120.585449 343.553131,115.177261 
	C346.368622,113.656616 348.240906,111.974098 348.939789,108.602409 
	C349.931610,103.817657 352.911255,99.983795 357.401794,98.055084 
	C361.137787,96.450447 363.783966,94.050499 365.865631,90.725945 
	C366.475250,89.752342 367.387634,88.965485 368.178070,88.108543 
	C369.871094,86.273064 371.899750,85.217430 374.425995,85.921394 
	C377.025818,86.645859 377.836639,88.782669 378.361267,91.188782 
	C380.212738,99.680328 377.771454,107.730827 375.627472,115.715881 
	C371.920532,129.522171 370.271851,143.350754 372.072815,157.670120 
	C373.887115,172.095581 371.357208,185.472061 362.883698,198.034760 
	C351.644623,214.697540 353.669220,236.559174 366.453400,252.257751 
	C372.108215,259.201691 386.339478,261.454834 393.990845,256.576752 
	C396.097015,255.233978 398.027222,253.597794 400.194214,252.372025 
	C403.110809,250.722198 406.448212,248.903870 409.659607,250.396240 
	C419.388092,254.917175 428.906067,259.891083 438.376709,264.623871 
	C437.834473,267.443329 435.810638,267.289459 434.393616,267.852142 
	C430.837341,269.264343 427.181427,270.425110 423.621613,271.829041 
	C415.993164,274.837616 410.954437,280.064667 409.092682,288.307892 
	C407.878052,293.685669 404.726166,297.908600 400.099426,301.075897 
	C373.439819,319.326019 345.036072,324.675262 314.358459,312.591125 
	C311.290955,311.382782 309.580261,312.173401 307.398865,314.208160 
	C299.597412,321.485046 293.226532,330.155457 284.953491,336.967346 
	C277.884308,342.788055 270.158417,347.181854 260.989288,348.621460 
	C258.092346,349.076294 254.573212,350.581299 252.497131,348.077637 
	C250.435883,345.591858 254.361374,343.560577 254.772964,340.699066 
	C252.244675,339.576141 249.945923,341.012268 247.661209,341.469604 
	C243.087433,342.385071 238.563950,343.758911 233.842896,342.935425 
	C228.322739,341.972595 227.107620,339.009003 230.491989,334.560394 
	C231.978897,332.605927 233.947723,331.018097 235.712341,329.249084 
	C235.180283,327.899994 233.988342,328.491272 233.158279,328.439453 
	C228.949738,328.176727 228.830582,325.971008 230.672638,323.103912 
	C232.586014,320.125763 235.271957,317.865723 238.261871,315.966370 
	C251.971100,307.257294 266.882477,301.026611 281.790680,294.779846 
	C290.518494,291.122803 299.207916,287.374146 308.642120,283.356934 
	C305.094330,280.043213 301.401367,278.571869 298.023560,276.675812 
	C290.157318,272.260284 282.363831,267.759247 276.237427,260.957947 
	C270.976166,255.117020 268.196899,248.462814 269.493866,240.410385 
	C270.100830,236.642014 269.507721,236.103958 263.297363,233.540543 
	C259.295441,241.484009 255.618637,249.621063 253.269867,258.241608 
	C248.305817,276.460846 238.587799,291.269165 222.903046,301.977173 
	C218.593201,304.919495 213.808807,306.910828 208.783310,308.188110 
	C188.547211,313.331116 170.039307,321.480804 156.043091,337.759430 
	C154.701096,339.320282 153.113342,342.004395 150.883575,338.243317 
	C147.366425,342.948273 145.778519,348.716888 141.861832,353.120026 
	C138.182999,350.671875 140.722870,347.096008 138.936783,344.098022 
	C133.298294,349.310425 127.713417,354.419312 122.188713,359.592438 
	C112.816017,368.368652 103.305717,376.972504 92.371956,383.821228 
	C89.025223,385.917542 88.999222,385.876038 85.508179,385.566345 
	C84.540733,382.855835 86.616394,381.211487 87.893593,379.437744 
	C93.849480,371.166626 101.083900,363.993927 107.901894,356.462860 
	C110.919922,353.129181 113.842300,349.708893 117.043198,346.063232 
M396.159760,261.946777 
	C387.733276,265.252625 379.364471,265.755341 371.013458,261.618378 
	C354.477539,253.426819 347.182526,230.568970 349.101685,216.106018 
	C350.325958,206.879532 355.022583,199.250931 359.967255,191.698181 
	C366.558533,181.630417 369.869293,170.962372 367.978241,158.609314 
	C366.660614,150.001785 364.519073,141.259125 366.669006,132.392288 
	C368.194977,126.098953 369.527588,119.757545 371.125763,113.483253 
	C372.943451,106.347305 373.310730,99.210335 372.276886,91.648743 
	C366.485077,92.983932 366.271912,97.560013 365.470032,101.412392 
	C364.070160,108.137764 361.097565,114.086197 358.173828,120.095924 
	C357.694885,119.952499 357.215912,119.809074 356.736969,119.665657 
	C357.991394,113.899994 359.245819,108.134338 360.500214,102.368675 
	C359.935120,102.192268 359.370026,102.015862 358.804932,101.839455 
	C352.049194,113.572739 352.303528,128.034363 345.091187,140.966629 
	C344.319061,133.497406 347.237885,127.469437 346.410309,121.241974 
	C343.513062,120.775879 341.680054,122.338882 339.865631,123.726456 
	C333.671753,128.463303 331.127319,135.297638 329.375854,142.520081 
	C326.274323,155.309967 327.577118,168.350418 327.204407,181.299637 
	C327.102753,184.832367 327.429260,187.755554 332.456299,188.467422 
	C322.960266,192.759750 330.087341,201.683914 325.731995,207.428589 
	C322.872131,202.703674 324.252869,197.279739 321.977112,192.909714 
	C313.881439,193.929047 313.434204,194.335754 313.214783,202.003662 
	C313.090973,206.329620 313.317810,210.665710 313.190918,214.991486 
	C312.935150,223.711792 314.734375,232.254028 315.896576,241.341171 
	C313.365356,240.152298 313.475189,238.205231 313.104370,236.745224 
	C312.103394,232.803986 309.681244,232.644943 306.657776,234.015411 
	C302.165222,236.051804 302.812897,239.797684 303.959473,243.413559 
	C306.205566,250.497208 310.810242,256.318817 314.535248,262.612488 
	C315.386658,264.050995 317.167480,265.306122 315.728424,268.270691 
	C310.898926,261.872345 305.432892,256.610565 301.499329,250.050354 
	C299.941650,247.452499 298.742279,244.710907 298.048187,241.785431 
	C296.528595,235.380371 299.075226,229.826874 304.618866,227.177963 
	C308.816284,225.172287 309.193054,222.509476 305.510559,219.392609 
	C301.062836,215.628082 296.438904,212.072464 291.954163,208.350586 
	C290.386169,207.049316 289.024780,206.463120 287.072754,207.753845 
	C280.093872,212.368591 273.495117,217.346161 268.398346,224.139557 
	C266.274689,226.970123 266.668335,228.810791 269.542908,230.600937 
	C275.621429,234.386383 281.680695,238.206039 287.663544,242.139877 
	C289.500580,243.347763 291.846924,244.181122 292.889771,247.563171 
	C286.316132,245.737640 281.450439,241.117783 275.363831,240.495529 
	C274.905029,241.188324 274.637756,241.439224 274.561279,241.738831 
	C274.397614,242.380096 274.309937,243.043823 274.230621,243.703094 
	C273.124786,252.896347 278.913666,258.176331 285.368805,262.923462 
	C293.313507,268.765991 302.306915,272.855042 310.819000,277.751251 
	C313.579773,279.339294 316.898438,280.375031 318.667511,284.259827 
	C291.806122,296.854797 264.658081,308.325867 238.582733,322.107056 
	C248.905243,322.981140 257.515533,316.304596 267.655060,316.354156 
	C257.709198,322.936218 245.779160,326.322632 237.110107,336.303711 
	C254.001892,339.225708 265.885010,328.238892 280.084747,324.610229 
	C275.248260,330.638580 267.545349,333.870331 263.641418,341.637512 
	C268.264832,341.270538 271.423096,339.531433 274.170990,337.106689 
	C280.787048,331.268707 287.332336,325.349121 293.841522,319.391815 
	C305.633820,308.599426 317.125580,297.442383 330.974548,289.184967 
	C332.013977,288.565186 332.922058,287.165070 334.789124,288.449280 
	C330.010376,295.562012 321.651184,299.381226 316.785065,307.313690 
	C329.642853,311.938263 341.925903,315.415314 354.928589,314.156891 
	C366.018341,313.083618 376.026886,308.403503 385.975098,303.622559 
	C395.471649,299.058685 402.449646,292.626038 405.051056,281.980438 
	C406.768707,274.951660 411.757812,270.686920 418.349121,268.135712 
	C420.587585,267.269287 422.802887,266.343079 425.669952,265.185272 
	C423.418243,263.929718 421.729156,263.397858 420.601318,262.293060 
	C412.841553,254.691635 404.979218,254.569061 396.159760,261.946777 
M248.372635,188.150467 
	C249.572220,189.501709 250.643250,191.338074 252.871094,190.230255 
	C257.790070,187.784180 263.066010,186.745087 268.937531,186.419357 
	C264.844727,181.281021 261.070221,176.678192 257.444183,171.961227 
	C250.319458,162.692963 244.809113,152.448303 239.449188,142.102737 
	C237.221542,137.803024 234.645248,133.656464 229.830734,130.768234 
	C231.860962,147.223801 239.541519,161.112411 245.813126,175.473068 
	C245.387955,175.664459 244.962769,175.855850 244.537598,176.047241 
	C242.505203,173.036652 240.472824,170.026062 237.750320,165.993195 
	C238.817749,175.333481 243.211197,181.542221 248.372635,188.150467 
M321.862823,170.017014 
	C321.575653,169.486130 320.955780,169.285400 320.699219,169.723511 
	C317.355103,175.434204 315.265533,181.535110 314.684509,188.439514 
	C318.486938,188.613663 322.277405,189.408676 322.546722,184.483475 
	C322.798584,179.878387 323.135468,175.200714 321.862823,170.017014 
M296.806000,204.403061 
	C300.057678,207.049927 303.309387,209.696808 307.234314,212.891693 
	C307.704071,207.423187 308.110992,202.990219 307.139832,198.513351 
	C301.198547,199.513382 298.373810,201.008453 296.806000,204.403061 
z"/>
<path fill="#000000" opacity="1.000000" stroke="none" 
	d="
M275.907410,109.702789 
	C283.199615,112.685585 285.913239,116.580170 285.779541,123.354607 
	C285.645935,130.124649 282.850433,134.541016 277.326599,136.708710 
	C271.770935,138.888901 264.629639,137.263321 260.848236,132.957748 
	C257.265717,128.878632 256.391876,121.443321 258.922607,116.573814 
	C261.630157,111.364120 267.126373,108.640129 273.542267,109.339706 
	C274.201569,109.411591 274.854248,109.544456 275.907410,109.702789 
z"/>
<path fill="#000000" opacity="1.000000" stroke="none" 
	d="
M202.439026,347.870880 
	C195.179947,350.620178 189.591995,349.092987 186.433548,343.794861 
	C183.510834,338.892151 184.279892,332.428986 188.229080,328.705414 
	C192.263123,324.901825 198.966736,324.541290 203.864182,327.864532 
	C210.375290,332.282806 209.851501,341.883362 202.439026,347.870880 
z"/>
</svg>